<?xml version="1.0" encoding="UTF-8" standalone="no"?>
<svg
   xmlns:dc="http://purl.org/dc/elements/1.1/"
   xmlns:cc="http://creativecommons.org/ns#"
   xmlns:rdf="http://www.w3.org/1999/02/22-rdf-syntax-ns#"
   xmlns:svg="http://www.w3.org/2000/svg"
   xmlns="http://www.w3.org/2000/svg"
   xmlns:sodipodi="http://sodipodi.sourceforge.net/DTD/sodipodi-0.dtd"
   xmlns:inkscape="http://www.inkscape.org/namespaces/inkscape"
   width="32"
   height="32"
   viewBox="0 0 32 32"
   id="svg2"
   version="1.1"
   inkscape:version="0.91 r13725"
   sodipodi:docname="document-save.svg"
   inkscape:export-filename="/home/ryan/Dropbox/C++/threed-beam-fea/gui/images/document-save.png"
   inkscape:export-xdpi="90"
   inkscape:export-ydpi="90">
  <metadata
     id="metadata16">
    <rdf:RDF>
      <cc:Work
         rdf:about="">
        <dc:format>image/svg+xml</dc:format>
        <dc:type
           rdf:resource="http://purl.org/dc/dcmitype/StillImage" />
      </cc:Work>
    </rdf:RDF>
  </metadata>
  <defs
     id="defs14" />
  <sodipodi:namedview
     pagecolor="#ffffff"
     bordercolor="#666666"
     borderopacity="1"
     objecttolerance="10"
     gridtolerance="10"
     guidetolerance="10"
     inkscape:pageopacity="0"
     inkscape:pageshadow="2"
     inkscape:window-width="1920"
     inkscape:window-height="1019"
     id="namedview12"
     showgrid="false"
     inkscape:zoom="7.375"
     inkscape:cx="16"
     inkscape:cy="16"
     inkscape:window-x="0"
     inkscape:window-y="29"
     inkscape:window-maximized="1"
     inkscape:current-layer="svg2" />
  <path
     style="fill:#268bd2;fill-rule:evenodd"
     d="M 8.222656 0 L 23.777344 0 C 28.445312 0 30 1.601562 30 6.398438 L 30 25.601562 C 30 30.398438 28.445312 32 23.777344 32 L 8.222656 32 C 3.554688 32 2 30.398438 2 25.601562 L 2 6.398438 C 2 1.601562 3.554688 0 8.222656 0 Z "
     id="path4" />
  <g
     style="fill:#fff"
     id="g6">
    <path
       style="fill-rule:evenodd;fill-opacity:.302"
       d="M 8.222656 0 L 23.777344 0 C 28.445312 0 30 1.601562 30 6.398438 L 30 19.199219 C 30 24 28.445312 25.601562 23.777344 25.601562 L 8.222656 25.601562 C 3.554688 25.601562 2 24 2 19.199219 L 2 6.398438 C 2 1.601562 3.554688 0 8.222656 0 Z "
       id="path8" />
    <path
       style="fill-opacity:.902"
       d="M 25 14 L 16 24 L 7 14 L 12 14 L 12 4 L 20 4 L 20 14 Z "
       id="path10" />
  </g>
</svg>
